<svg xmlns="http://www.w3.org/2000/svg" viewBox="0 0 23.7 31.76"><defs><style>.cls-1{fill:#4d4d4d;}</style></defs><title>Asset 1</title><g id="Layer_2" data-name="Layer 2"><g id="Layer_1-2" data-name="Layer 1"><rect class="cls-1" x="15.95" y="20.82" width="5.67" height="10.06" transform="matrix(0.87, -0.49, 0.49, 0.87, -10.19, 12.38)"/><path class="cls-1" d="M3.28,21.14c-6.7-12.7-1-17.57-1-17.57l4.46,8a1.81,1.81,0,0,0-.75,1.29c0,.74,0,1.69,2.22,5.66l.09.16c2.2,4,3,4.47,3.62,4.88a1.86,1.86,0,0,0,1.52,0l4.41,8S10.66,33.83,3.44,21.42Z"/><rect class="cls-1" x="4.83" y="0.74" width="5.67" height="10.06" transform="translate(-1.84 4.43) rotate(-28.95)"/></g></g></svg>